<svg xmlns="http://www.w3.org/2000/svg" width="512" height="512" viewBox="0 0 512 512">
  <defs>
    <radialGradient id="bgd" cx="0.5" cy="0.42" r="0.9">
      <stop offset="0" stop-color="#14161B"/><stop offset="1" stop-color="#000000"/>
    </radialGradient>
    <linearGradient id="bone" x1="0" y1="0" x2="0" y2="1">
      <stop offset="0" stop-color="#FFFFFF"/><stop offset="1" stop-color="#9AA1AD"/>
    </linearGradient>
    <filter id="glow" x="-70%" y="-70%" width="240%" height="240%">
      <feGaussianBlur stdDeviation="7" result="b"/><feMerge><feMergeNode in="b"/><feMergeNode in="SourceGraphic"/></feMerge>
    </filter>
    <filter id="sglow" x="-80%" y="-80%" width="260%" height="260%">
      <feGaussianBlur stdDeviation="4" result="b"/><feMerge><feMergeNode in="b"/><feMergeNode in="SourceGraphic"/></feMerge>
    </filter>
  </defs>
  <rect width="512" height="512" rx="112" fill="url(#bgd)"/>
  <g stroke="#FFFFFF" stroke-linecap="round" fill="none" filter="url(#glow)">
    <path d="M120,74 L392,74" stroke-width="9"/>
    <path d="M150,46 L150,102" stroke-width="20"/><path d="M128,54 L128,94" stroke-width="18"/>
    <path d="M362,46 L362,102" stroke-width="20"/><path d="M384,54 L384,94" stroke-width="18"/>
  </g>
  <g stroke="#FFFFFF" stroke-width="17" stroke-linecap="round" stroke-linejoin="round" fill="none" filter="url(#glow)">
    <path d="M232,206 L218,138 L206,76"/><path d="M280,206 L294,138 L306,76"/>
    <path d="M232,206 L280,206"/><path d="M256,206 L256,300"/>
    <path d="M256,300 L302,346 L330,404"/><path d="M256,300 L206,340 L168,392"/>
  </g>
  <circle cx="256" cy="152" r="27" fill="#FFFFFF" filter="url(#sglow)"/>
  <g fill="#FFFFFF" filter="url(#sglow)">
    <circle cx="206" cy="76" r="9"/><circle cx="306" cy="76" r="9"/>
    <circle cx="218" cy="138" r="8"/><circle cx="294" cy="138" r="8"/>
    <circle cx="232" cy="206" r="9"/><circle cx="280" cy="206" r="9"/>
    <circle cx="256" cy="300" r="9"/><circle cx="302" cy="346" r="8"/><circle cx="206" cy="340" r="8"/>
    <circle cx="330" cy="404" r="9"/><circle cx="168" cy="392" r="9"/>
  </g>
</svg>
