<svg xmlns="http://www.w3.org/2000/svg" width="512" height="512" viewBox="0 0 512 512">
  <defs>
    <linearGradient id="bg" x1="0" y1="0" x2="1" y2="1">
      <stop offset="0" stop-color="#C6FF00"/>
      <stop offset="0.55" stop-color="#00E5B0"/>
      <stop offset="1" stop-color="#00B8FF"/>
    </linearGradient>
    <filter id="glow" x="-60%" y="-60%" width="220%" height="220%">
      <feGaussianBlur stdDeviation="7" result="b"/>
      <feMerge><feMergeNode in="b"/><feMergeNode in="SourceGraphic"/></feMerge>
    </filter>
  </defs>
  <rect width="512" height="512" rx="112" fill="url(#bg)"/>
  <g stroke="#0B1220" stroke-width="18" stroke-linecap="round" stroke-linejoin="round" fill="none">
    <path d="M256,182 L256,300"/>
    <path d="M256,205 L196,150 L150,108"/>
    <path d="M256,205 L316,150 L362,108"/>
    <path d="M256,300 L206,356 L176,408"/>
    <path d="M256,300 L306,356 L336,408"/>
  </g>
  <circle cx="256" cy="140" r="31" fill="#0B1220"/>
  <g fill="#FFFFFF" filter="url(#glow)">
    <circle cx="256" cy="205" r="10"/>
    <circle cx="196" cy="150" r="9"/><circle cx="316" cy="150" r="9"/>
    <circle cx="150" cy="108" r="10"/><circle cx="362" cy="108" r="10"/>
    <circle cx="256" cy="300" r="10"/>
    <circle cx="206" cy="356" r="9"/><circle cx="306" cy="356" r="9"/>
    <circle cx="176" cy="408" r="10"/><circle cx="336" cy="408" r="10"/>
  </g>
</svg>
